<?xml version="1.0" standalone="no"?>
<!DOCTYPE svg PUBLIC "-//W3C//DTD SVG 20010904//EN"
 "http://www.w3.org/TR/2001/REC-SVG-20010904/DTD/svg10.dtd">
<svg version="1.0" xmlns="http://www.w3.org/2000/svg"
 width="512.000000pt" height="512.000000pt" viewBox="0 0 512.000000 512.000000"
 preserveAspectRatio="xMidYMid meet">
<metadata>
Created by potrace 1.16, written by Peter Selinger 2001-2019
</metadata>
<g transform="translate(0.000000,512.000000) scale(0.100000,-0.100000)"
fill="#000000" stroke="none">
<path d="M364 5051 c-78 -69 -130 -124 -234 -251 l-54 -65 65 60 c78 74 255
226 327 283 l54 42 -39 0 c-35 0 -50 -9 -119 -69z"/>
<path d="M932 5070 c-310 -187 -593 -451 -833 -780 -56 -76 -34 -58 126 108
278 287 461 443 736 628 l141 94 -44 0 c-34 0 -60 -11 -126 -50z"/>
<path d="M4091 5116 c2 -2 49 -38 103 -80 281 -213 580 -537 621 -671 8 -27
48 -108 89 -180 40 -71 90 -160 111 -197 20 -38 40 -68 45 -68 4 0 15 19 25
42 l16 41 -42 81 c-186 358 -479 717 -787 965 -81 66 -90 71 -136 71 -27 0
-47 -2 -45 -4z"/>
<path d="M4657 5038 c158 -147 320 -320 435 -468 l27 -35 1 42 c0 36 -8 51
-66 125 -37 45 -143 158 -236 251 -162 161 -170 167 -209 167 l-40 0 88 -82z"/>
<path d="M2330 4749 c-269 -31 -561 -124 -808 -256 -102 -54 -119 -70 -109
-97 5 -12 43 4 169 67 157 80 330 145 490 186 244 62 563 73 818 28 149 -27
319 -72 380 -100 19 -9 55 -21 80 -26 25 -5 53 -12 63 -16 29 -12 19 13 -11
29 -16 8 -34 22 -41 30 -15 18 -191 77 -335 111 -201 49 -494 67 -696 44z"/>
<path d="M2325 4604 c-520 -63 -1052 -372 -1370 -796 -94 -124 -179 -265 -178
-290 1 -11 -3 -16 -9 -12 -7 4 -8 2 -4 -4 4 -7 2 -12 -4 -12 -6 0 -8 -4 -5
-10 3 -5 2 -10 -3 -10 -6 0 -14 -13 -20 -28 -9 -27 -8 -29 14 -24 13 2 25 9
25 16 1 6 2 16 4 21 1 6 3 18 3 28 2 20 28 23 35 4 3 -8 -10 -48 -29 -90 -105
-239 -165 -529 -165 -802 0 -271 35 -465 134 -740 81 -223 403 -606 695 -824
92 -69 250 -162 351 -206 l85 -37 18 22 c35 43 21 60 -92 112 -179 82 -471
280 -594 402 -294 293 -482 813 -463 1285 11 284 77 526 214 794 104 202 319
482 456 592 31 25 57 49 57 52 0 3 -8 0 -17 -8 -10 -8 -44 -36 -75 -62 -31
-26 -59 -44 -62 -39 -10 17 249 209 385 285 127 71 405 171 385 138 -4 -6 -16
-11 -26 -11 -31 0 -33 -19 -4 -30 29 -11 44 -1 44 31 0 8 6 24 14 34 13 17 15
16 39 -21 35 -54 79 -169 75 -197 -2 -17 -14 -25 -48 -35 -286 -81 -454 -171
-650 -347 -187 -169 -307 -325 -415 -539 -105 -209 -158 -381 -186 -606 -13
-107 -6 -266 15 -350 l14 -55 -6 70 c-11 111 -8 305 4 313 15 10 25 42 14 42
-32 0 84 428 122 452 7 4 9 8 3 8 -5 0 1 7 13 16 12 8 32 34 43 57 27 52 101
140 199 235 53 52 74 79 72 94 -3 14 26 49 105 127 131 129 247 218 362 276
59 30 91 52 102 72 17 30 66 53 192 88 31 8 57 20 57 25 0 34 119 56 295 54
72 0 172 -11 186 -19 4 -3 27 -9 51 -14 98 -20 205 -53 287 -88 83 -35 340
-183 360 -207 5 -6 12 -27 16 -46 6 -31 2 -39 -34 -74 l-40 -39 -102 76 c-242
178 -454 254 -734 264 -387 14 -666 -103 -985 -413 -111 -108 -135 -158 -28
-58 89 83 140 123 243 191 139 92 135 91 162 57 13 -16 21 -22 18 -13 -5 13
11 24 71 49 213 88 510 117 725 70 138 -30 380 -131 464 -194 46 -35 148 -86
170 -86 29 0 43 12 64 51 29 53 56 50 120 -15 53 -54 54 -56 37 -75 -14 -15
-101 -79 -134 -98 -11 -6 13 -45 31 -52 17 -6 33 2 78 38 32 25 58 52 58 59 1
7 8 15 16 18 60 23 262 -274 334 -491 60 -182 75 -280 75 -500 0 -170 -3 -216
-23 -305 -33 -157 -74 -269 -151 -425 -82 -165 -163 -280 -295 -422 -54 -57
-95 -106 -93 -109 7 -6 175 171 232 244 238 310 374 730 351 1082 -25 377
-158 710 -399 997 -88 106 -153 163 -185 163 -11 0 -21 5 -21 11 0 15 56 66
81 74 11 4 19 11 17 16 -8 23 -195 145 -313 204 -194 97 -352 143 -565 165
-142 15 -226 12 -314 -10 -103 -26 -122 -25 -142 5 -20 30 -31 139 -15 149 23
15 232 36 351 35 69 0 168 -6 220 -13 52 -7 98 -11 102 -9 9 5 116 -29 288
-89 63 -22 139 -46 168 -53 64 -16 326 -145 367 -181 17 -14 39 -34 50 -43 11
-9 31 -29 45 -44 21 -24 22 -30 10 -37 -9 -6 -10 -10 -3 -10 6 0 15 5 18 10
11 18 19 11 89 -70 38 -44 77 -82 87 -85 21 -7 66 -68 136 -185 131 -219 194
-393 250 -694 23 -128 29 -447 9 -587 -30 -211 -54 -260 -137 -273 -35 -5 -55
-16 -84 -46 l-39 -40 23 -48 22 -48 -19 -52 c-30 -79 -122 -236 -197 -336 -77
-104 -196 -239 -203 -231 -3 3 35 65 84 137 93 137 155 273 219 478 15 47 36
109 46 138 44 123 74 304 84 507 3 66 8 154 11 195 14 183 -86 515 -222 743
-21 34 -66 98 -100 142 -74 95 -240 262 -251 252 -4 -4 11 -26 34 -50 113
-117 251 -320 329 -482 197 -409 223 -867 72 -1304 -45 -133 -116 -307 -153
-381 -27 -53 -208 -281 -270 -340 -43 -41 -65 -79 -65 -114 0 -21 -19 -38
-112 -99 -62 -41 -139 -89 -170 -106 -32 -18 -66 -47 -78 -65 -24 -40 -27
-106 -5 -106 8 0 81 34 162 75 l148 75 216 217 c175 176 230 238 284 322 78
118 159 274 200 382 23 59 40 85 83 127 30 28 63 52 73 52 20 0 31 45 49 194
12 99 15 106 36 106 12 0 14 32 14 193 0 226 -10 315 -51 475 -17 64 -35 136
-40 160 -4 23 -27 86 -49 140 -23 53 -42 104 -43 112 -1 8 -7 20 -14 25 -7 6
-19 26 -27 47 l-15 36 39 16 c29 11 40 22 40 37 0 28 -133 227 -224 337 -40
49 -109 120 -152 160 -85 77 -224 187 -224 178 0 -3 -9 3 -20 14 -12 12 -25
18 -30 15 -6 -4 -10 -2 -10 4 0 5 -21 21 -47 35 l-48 26 30 -26 c24 -21 25
-23 6 -14 -13 7 -34 10 -47 7 -23 -4 -143 45 -154 64 -3 5 -15 10 -26 12 -34
5 -114 57 -115 75 0 10 -3 12 -6 5 -6 -17 -23 -16 -23 1 0 7 -9 16 -20 19 -11
3 -18 1 -14 -4 3 -5 0 -9 -6 -9 -6 0 -13 7 -16 15 -4 8 -10 15 -16 15 -5 0 -6
-6 -3 -12 4 -7 0 -5 -9 6 -9 11 -19 15 -28 10 -21 -14 -58 -16 -58 -3 0 6 -7
9 -15 5 -8 -3 -15 -2 -15 3 0 5 -11 12 -25 15 -14 4 -25 11 -25 16 0 6 -7 10
-16 10 -10 0 -12 -5 -7 -12 4 -8 -3 -7 -17 3 -14 9 -43 18 -65 21 -22 4 -34 4
-27 1 6 -2 12 -9 12 -15 0 -6 -8 -7 -17 -3 -10 4 -48 7 -85 8 -38 1 -68 5 -68
10 0 4 -15 7 -32 8 -31 1 -32 1 -8 9 42 13 -215 9 -335 -6z m362 -40 c-3 -3
-12 -4 -19 -1 -8 3 -5 6 6 6 11 1 17 -2 13 -5z"/>
<path d="M2768 4603 c6 -2 18 -2 25 0 6 3 1 5 -13 5 -14 0 -19 -2 -12 -5z"/>
<path d="M3550 4606 c0 -3 14 -12 30 -21 17 -9 30 -13 30 -11 0 3 -13 12 -30
21 -16 9 -30 13 -30 11z"/>
<path d="M3655 4545 c11 -9 29 -21 40 -26 l20 -10 -20 16 c-11 9 -29 21 -40
26 l-20 10 20 -16z"/>
<path d="M3739 4493 c126 -92 191 -145 279 -228 368 -348 634 -827 723 -1299
29 -154 37 -495 16 -656 -71 -533 -334 -1103 -657 -1421 -270 -266 -577 -436
-975 -540 -137 -36 -144 -39 -80 -33 39 4 77 8 85 9 8 1 35 6 60 10 110 17
435 120 495 157 17 9 50 28 75 40 122 61 429 328 526 458 128 172 183 269 314
555 59 129 126 336 134 415 3 25 12 74 20 110 52 225 66 585 32 825 -62 442
-292 903 -630 1262 -105 111 -345 308 -421 344 -14 7 -13 4 4 -8z"/>
<path d="M1303 4426 c-206 -155 -314 -262 -509 -505 -140 -174 -157 -200 -229
-346 -100 -204 -163 -401 -210 -659 -65 -358 -47 -830 42 -1079 44 -125 169
-367 264 -512 89 -135 170 -235 308 -379 36 -38 59 -66 51 -61 -13 8 -13 6 -1
-8 7 -9 18 -14 24 -10 5 3 7 1 4 -4 -10 -16 230 -223 258 -223 2 0 42 -24 87
-54 94 -61 180 -106 202 -106 12 0 13 6 7 22 -4 12 -38 37 -80 59 -171 91
-369 247 -548 433 -343 354 -524 735 -578 1217 -17 155 -20 299 -5 299 6 0 10
30 10 69 0 234 90 622 205 886 116 267 271 498 486 729 72 77 240 226 256 226
9 0 68 80 59 80 -3 0 -49 -33 -103 -74z"/>
<path d="M1331 4354 c0 -11 3 -14 6 -6 3 7 2 16 -1 19 -3 4 -6 -2 -5 -13z"/>
<path d="M1776 4235 c-61 -30 -115 -60 -120 -66 -6 -6 22 5 61 25 40 20 78 36
85 36 7 0 33 14 57 30 65 44 39 37 -83 -25z"/>
<path d="M1129 4173 c-13 -16 -12 -17 4 -4 9 7 17 15 17 17 0 8 -8 3 -21 -13z"/>
<path d="M1562 4110 c-40 -28 -72 -52 -72 -55 0 -8 86 45 120 74 53 45 32 37
-48 -19z"/>
<path d="M2285 3795 c-38 -7 -85 -16 -103 -19 -181 -34 -427 -180 -607 -361
-241 -241 -364 -493 -410 -837 -6 -48 -7 -48 -43 -48 -44 0 -43 7 -43 -165 -1
-250 89 -508 273 -784 81 -120 286 -309 398 -366 43 -21 107 -41 122 -37 4 1
43 -14 87 -33 139 -59 262 -90 426 -106 102 -10 318 -2 310 11 -9 14 -122 29
-250 34 -151 5 -242 22 -415 78 -138 45 -210 78 -315 146 -359 231 -590 633
-622 1084 l-6 87 54 3 c54 3 54 3 57 38 5 73 36 228 59 299 42 129 144 316
236 431 152 190 288 302 489 398 56 27 96 52 93 59 -5 15 109 50 244 74 57 10
107 21 109 24 9 9 -72 3 -143 -10z"/>
<path d="M4350 3485 c-7 -8 -11 -16 -9 -18 2 -1 13 -7 24 -13 39 -21 127 -228
170 -398 14 -54 32 -151 41 -215 16 -123 22 -394 10 -448 -7 -32 -7 -33 27
-33 l35 0 4 78 c11 224 -28 487 -108 722 -50 148 -140 333 -165 338 -9 1 -22
-4 -29 -13z"/>
<path d="M2867 3343 c11 -10 47 -34 79 -53 32 -19 98 -75 147 -123 75 -76 86
-91 75 -104 -28 -34 -354 -283 -370 -283 -10 0 -40 16 -67 35 -63 46 -120 65
-192 65 -253 0 -423 -304 -307 -548 13 -28 19 -56 16 -82 -2 -28 0 -39 8 -36
7 3 22 -6 35 -20 12 -13 46 -35 75 -49 l51 -24 -20 -86 c-14 -56 -26 -85 -35
-85 -34 0 -154 75 -211 133 -73 74 -103 118 -143 205 -107 236 -58 520 120
700 107 107 215 161 367 183 56 9 75 15 75 27 0 12 -11 14 -69 8 -257 -23
-472 -205 -552 -466 -19 -60 -23 -97 -23 -190 0 -164 39 -289 134 -436 22 -33
40 -68 40 -78 0 -10 18 -35 41 -55 l41 -36 -19 -33 c-11 -19 -23 -30 -32 -27
-11 4 -11 1 1 -17 18 -27 126 -76 253 -114 78 -24 108 -27 230 -28 122 -1 149
2 206 22 138 47 241 129 330 260 57 83 70 109 48 98 -10 -5 -10 -4 1 6 27 23
88 151 112 233 19 66 22 103 22 215 -1 117 -5 147 -28 225 -15 49 -46 128 -69
175 -23 47 -40 95 -39 106 6 47 -225 248 -325 284 -28 10 -28 10 -6 -7z m351
-408 c72 -143 94 -341 57 -505 -25 -110 -92 -241 -170 -333 -37 -43 -70 -76
-73 -72 -4 3 -2 9 3 13 49 35 132 189 161 297 26 98 26 334 -1 420 -18 61 -31
245 -17 245 5 0 23 -29 40 -65z m-88 -82 c171 -380 -39 -818 -439 -919 -71
-18 -272 -17 -290 1 -7 7 -4 35 10 85 l21 75 106 0 c92 0 114 3 155 24 77 38
151 113 207 211 78 137 94 240 57 378 l-12 44 80 74 c44 40 81 73 82 74 1 0
12 -21 23 -47z m-464 -34 c24 -11 62 -38 86 -60 l43 -39 -190 -185 c-104 -102
-225 -213 -269 -246 l-78 -62 7 41 c5 29 1 58 -11 94 -23 72 -21 188 5 259 64
169 265 267 407 198z m191 -253 c15 -145 -85 -282 -233 -321 -59 -15 -80 -14
-162 7 -41 10 -42 11 -21 26 75 53 199 182 264 277 28 40 64 89 80 110 l30 37
18 -42 c10 -23 21 -66 24 -94z m313 -499 c0 -2 -12 -14 -27 -28 l-28 -24 24
28 c23 25 31 32 31 24z m-90 -90 c0 -2 -10 -12 -22 -23 l-23 -19 19 23 c18 21
26 27 26 19z m-770 -78 c26 -15 29 -18 10 -13 -35 9 -78 33 -60 33 8 0 31 -9
50 -20z m213 -56 c-7 -2 -21 -2 -30 0 -10 3 -4 5 12 5 17 0 24 -2 18 -5z m154
-69 c-3 -3 -12 -4 -19 -1 -8 3 -5 6 6 6 11 1 17 -2 13 -5z m-110 -11 c-20 -2
-52 -2 -70 0 -17 2 0 4 38 4 39 0 53 -2 32 -4z"/>
<path d="M3560 3356 c0 -2 8 -10 18 -17 15 -13 16 -12 3 4 -13 16 -21 21 -21
13z"/>
<path d="M3747 3289 c-9 -5 -22 -7 -28 -4 -5 4 -2 -10 7 -32 73 -167 115 -320
129 -466 l7 -75 -27 -9 -27 -9 -3 -139 c-6 -258 -88 -521 -228 -729 -26 -38
-47 -72 -47 -77 0 -10 49 -44 54 -38 2 2 27 44 55 92 95 165 153 320 192 512
12 61 28 120 35 132 19 30 18 229 -1 357 -16 105 -14 140 3 59 37 -171 39
-398 7 -578 -8 -44 -14 -84 -14 -90 2 -24 28 94 35 154 5 45 9 60 14 46 4 -11
5 14 3 55 -3 54 -2 71 6 60 8 -12 11 -8 11 17 0 25 5 32 23 35 20 3 22 10 25
62 5 89 -25 256 -69 391 -39 117 -114 276 -134 282 -5 1 -18 -2 -28 -8z"/>
<path d="M4651 2287 c-6 -8 -22 -59 -36 -113 -32 -133 -98 -320 -142 -407
l-35 -71 -18 22 c-20 25 -40 29 -40 9 0 -21 -160 -296 -226 -387 -231 -323
-704 -635 -1145 -754 -286 -78 -583 -86 -881 -26 -331 68 -595 193 -868 411
-146 117 -459 431 -518 519 -55 84 -133 233 -168 325 -28 73 -30 62 -6 -31 23
-86 102 -267 155 -356 114 -190 394 -485 573 -605 38 -25 87 -60 109 -78 22
-18 65 -45 95 -60 30 -16 66 -36 80 -45 38 -26 228 -106 306 -130 38 -11 96
-30 129 -41 67 -22 100 -30 130 -31 11 0 72 -7 135 -15 158 -21 462 -13 620
15 319 58 666 210 930 408 207 155 360 310 450 455 49 79 163 235 190 259 9 8
28 32 42 52 13 21 27 36 30 33 7 -7 72 163 104 273 22 77 25 104 24 232 0 79
-2 145 -4 147 -2 2 -8 -3 -15 -10z"/>
<path d="M971 2204 c0 -11 3 -14 6 -6 3 7 2 16 -1 19 -3 4 -6 -2 -5 -13z"/>
<path d="M1485 1640 c10 -11 20 -20 23 -20 3 0 -3 9 -13 20 -10 11 -20 20 -23
20 -3 0 3 -9 13 -20z"/>
<path d="M3637 1636 c-36 -54 -152 -168 -242 -236 -165 -127 -348 -216 -537
-263 -54 -14 -94 -29 -97 -38 -3 -11 -1 -11 10 -3 8 6 32 15 54 19 143 25 354
119 519 230 131 88 324 276 314 307 -2 6 -12 -1 -21 -16z"/>
<path d="M1555 1560 c10 -11 20 -20 23 -20 3 0 -3 9 -13 20 -10 11 -20 20 -23
20 -3 0 3 -9 13 -20z"/>
<path d="M1630 1240 c105 -94 358 -236 498 -279 192 -60 410 -83 582 -62 183
22 475 126 588 209 37 27 86 59 110 72 23 13 42 30 42 37 0 7 -2 13 -5 13 -3
0 -46 -27 -96 -61 -74 -49 -93 -58 -105 -48 -11 9 -21 9 -37 2 -12 -6 -40 -15
-62 -21 -22 -6 -82 -27 -134 -47 -196 -76 -344 -100 -566 -92 -82 3 -184 13
-225 22 -176 39 -371 121 -517 219 -101 67 -116 75 -73 36z"/>
<path d="M3999 963 c-13 -16 -12 -17 4 -4 16 13 21 21 13 21 -2 0 -10 -8 -17
-17z"/>
<path d="M2030 744 c142 -45 284 -65 485 -69 194 -3 196 -3 65 5 -188 13 -306
28 -438 56 -125 26 -184 31 -112 8z"/>
<path d="M2738 683 c12 -2 30 -2 40 0 9 3 -1 5 -23 4 -22 0 -30 -2 -17 -4z"/>
<path d="M2928 303 c7 -3 16 -2 19 1 4 3 -2 6 -13 5 -11 0 -14 -3 -6 -6z"/>
<path d="M2848 293 c7 -3 16 -2 19 1 4 3 -2 6 -13 5 -11 0 -14 -3 -6 -6z"/>
<path d="M2733 283 c9 -2 25 -2 35 0 9 3 1 5 -18 5 -19 0 -27 -2 -17 -5z"/>
</g>
</svg>